<svg id="svg" version="1.1" xmlns="http://www.w3.org/2000/svg" xmlns:xlink="http://www.w3.org/1999/xlink" width="400" height="400" viewBox="0, 0, 400,400"><g id="svgg"><path id="path0" d="M191.812 60.157 C 153.334 67.100,138.475 114.179,166.026 141.857 C 171.216 147.071,180.176 152.626,185.746 154.082 L 187.500 154.541 187.503 243.091 C 187.506 330.072,187.533 331.686,189.058 334.187 C 193.758 341.895,206.242 341.895,210.942 334.187 C 212.467 331.686,212.494 330.072,212.497 243.091 L 212.500 154.541 214.254 154.082 C 224.248 151.469,237.153 140.792,242.325 130.859 C 260.948 95.091,230.945 53.097,191.812 60.157 M66.577 61.456 C 60.278 64.560,60.574 62.234,60.333 110.587 L 60.118 153.596 55.739 155.084 C 15.489 168.766,14.638 229.271,54.484 244.345 L 60.139 246.484 60.148 288.554 C 60.157 335.006,60.066 334.098,65.102 337.684 C 68.797 340.315,76.114 340.551,79.645 338.152 C 85.770 333.991,85.520 336.020,85.768 288.529 L 85.989 246.198 88.893 245.278 C 129.978 232.256,131.152 170.183,90.593 155.394 L 85.988 153.715 85.768 111.428 C 85.553 70.385,85.500 69.060,83.942 66.409 C 80.507 60.562,72.832 58.372,66.577 61.456 M320.355 61.848 C 314.071 66.117,314.501 61.275,314.063 132.658 L 313.672 196.174 309.089 198.037 C 269.294 214.209,269.854 274.549,309.916 287.252 L 313.972 288.538 314.213 309.699 C 314.519 336.692,316.196 340.402,327.768 339.690 C 338.835 339.009,339.844 336.510,339.844 309.770 L 339.844 288.916 341.598 288.457 C 384.236 277.307,386.226 212.796,344.402 197.547 L 339.844 195.884 339.844 132.631 C 339.844 62.736,340.073 66.001,334.898 62.316 C 331.203 59.685,323.886 59.449,320.355 61.848 M207.031 86.904 C 216.565 89.769,224.002 101.438,222.276 110.822 C 218.946 128.918,198.507 136.465,185.209 124.509 C 167.257 108.368,183.769 79.913,207.031 86.904 M82.006 179.751 C 87.231 181.999,92.566 187.909,94.133 193.186 C 101.876 219.259,65.300 234.275,53.172 210.003 C 43.708 191.064,62.492 171.356,82.006 179.751 M337.348 222.793 C 353.573 230.525,353.526 253.989,337.268 262.227 C 316.583 272.709,295.606 248.018,309.233 229.229 C 315.770 220.216,326.692 217.716,337.348 222.793 " stroke="none" fill="#000000" fill-rule="evenodd"></path></g></svg>